# xmcd
#
# Track frame offsets:
#  150
#  11388
#  23808
#  33885
#  46583
#  58742
#  69420
#  80276
#  90031
#  106377
#
# Disc length: 1579 seconds
#
# Revision: 0
# Processed by: cddbd v1.5.1PL0 Copyright (c) Steve Scherf et al.
# Submitted via: Collectorz.com Music Collector 6.9
#
DISCID=6206290a
DTITLE=John Lee Hooker - I'm In The Mood
DYEAR=1900
DGENRE=Blues
TTITLE0=Boom Boom
TTITLE1=Crawling King Snake
TTITLE2=Dimples
TTITLE3=Hobo Blues
TTITLE4=I'm In The Mood
TTITLE5=Let's Make It
TTITLE6=No Shoes
TTITLE7=Onions
TTITLE8=Process
TTITLE9=Whiskey and Wimmen
EXTD=
EXTT0=
EXTT1=
EXTT2=
EXTT3=
EXTT4=
EXTT5=
EXTT6=
EXTT7=
EXTT8=
EXTT9=
PLAYORDER=
